<svg width="44" height="32" viewBox="0 0 44 32" fill="none" xmlns="http://www.w3.org/2000/svg">
<mask id="path-1-inside-1_57_711" fill="white">
<path d="M2.92188 16L18.0469 5L19.8696 6.325L7.85469 15.0625H41.0781V16.9375H7.85469L19.873 25.6775L18.0469 27L2.92188 16Z"/>
</mask>
<path d="M2.92188 16L18.0469 5L19.8696 6.325L7.85469 15.0625H41.0781V16.9375H7.85469L19.873 25.6775L18.0469 27L2.92188 16Z" fill="white"/>
<path d="M2.92188 16L1.15736 13.5738L-2.17868 16L1.15736 18.4262L2.92188 16ZM18.0469 5L19.8108 2.5734L18.0465 1.29081L16.2824 2.57379L18.0469 5ZM19.8696 6.325L21.634 8.75127L24.9711 6.32451L21.6336 3.8984L19.8696 6.325ZM7.85469 15.0625L6.09026 12.6362L-1.3714 18.0625H7.85469V15.0625ZM41.0781 15.0625H44.0781V12.0625H41.0781V15.0625ZM41.0781 16.9375V19.9375H44.0781V16.9375H41.0781ZM7.85469 16.9375V13.9375H-1.3714L6.09026 19.3638L7.85469 16.9375ZM19.873 25.6775L21.6327 28.1073L24.9808 25.6826L21.6375 23.2512L19.873 25.6775ZM18.0469 27L16.2824 29.4262L18.0431 30.7068L19.8065 29.4298L18.0469 27ZM4.68639 18.4262L19.8114 7.42621L16.2824 2.57379L1.15736 13.5738L4.68639 18.4262ZM16.2829 7.4266L18.1056 8.7516L21.6336 3.8984L19.8108 2.5734L16.2829 7.4266ZM18.1052 3.89873L6.09026 12.6362L9.61912 17.4888L21.634 8.75127L18.1052 3.89873ZM7.85469 18.0625H41.0781V12.0625H7.85469V18.0625ZM38.0781 15.0625V16.9375H44.0781V15.0625H38.0781ZM41.0781 13.9375H7.85469V19.9375H41.0781V13.9375ZM6.09026 19.3638L18.1086 28.1038L21.6375 23.2512L9.61912 14.5112L6.09026 19.3638ZM18.1134 23.2477L16.2873 24.5702L19.8065 29.4298L21.6327 28.1073L18.1134 23.2477ZM19.8114 24.5738L4.68639 13.5738L1.15736 18.4262L16.2824 29.4262L19.8114 24.5738Z" fill="white" mask="url(#path-1-inside-1_57_711)"/>
</svg>
