<svg width="81" height="81" viewBox="0 0 81 81" fill="none" xmlns="http://www.w3.org/2000/svg">
<path d="M61.3594 15.4688H68.3125C71.3719 15.4688 73.875 17.9719 73.875 21.0312V62.75C73.875 65.8094 71.3719 68.3125 68.3125 68.3125H12.6875C9.62812 68.3125 7.125 65.8094 7.125 62.75V21.0312C7.125 17.9719 9.62812 15.4688 12.6875 15.4688H19.6406" fill="#E5E5E5"/>
<path d="M68.3125 15.4688H61.3594H19.6406H12.6875C9.62812 15.4688 7.125 17.9719 7.125 21.0312V27.9844H73.875V21.0312C73.875 17.9719 71.3719 15.4688 68.3125 15.4688Z" fill="#EA685E"/>
<path d="M44.6719 15.4688H53.0156" stroke="#2C3E50" stroke-width="2" stroke-miterlimit="10" stroke-linecap="round" stroke-linejoin="round"/>
<path d="M27.9844 15.4688H36.3281" stroke="#2C3E50" stroke-width="2" stroke-miterlimit="10" stroke-linecap="round" stroke-linejoin="round"/>
<path d="M44.6719 68.3125H12.6875C9.62812 68.3125 7.125 65.8094 7.125 62.75V21.0312C7.125 17.9719 9.62812 15.4688 12.6875 15.4688H19.6406" stroke="#2C3E50" stroke-width="2" stroke-miterlimit="10" stroke-linecap="round" stroke-linejoin="round"/>
<path d="M61.3594 15.4688H68.3125C71.3719 15.4688 73.875 17.9719 73.875 21.0312V44.6719" stroke="#2C3E50" stroke-width="2" stroke-miterlimit="10" stroke-linecap="round" stroke-linejoin="round"/>
<path d="M36.3281 40.7781C37.0961 40.7781 37.7188 40.1555 37.7188 39.3875C37.7188 38.6195 37.0961 37.9969 36.3281 37.9969C35.5601 37.9969 34.9375 38.6195 34.9375 39.3875C34.9375 40.1555 35.5601 40.7781 36.3281 40.7781Z" stroke="#2C3E50" stroke-width="2" stroke-miterlimit="10" stroke-linecap="round" stroke-linejoin="round"/>
<path d="M46.0625 40.7781C46.8305 40.7781 47.4531 40.1555 47.4531 39.3875C47.4531 38.6195 46.8305 37.9969 46.0625 37.9969C45.2945 37.9969 44.6719 38.6195 44.6719 39.3875C44.6719 40.1555 45.2945 40.7781 46.0625 40.7781Z" stroke="#2C3E50" stroke-width="2" stroke-miterlimit="10" stroke-linecap="round" stroke-linejoin="round"/>
<path d="M55.7969 40.7781C56.5649 40.7781 57.1875 40.1555 57.1875 39.3875C57.1875 38.6195 56.5649 37.9969 55.7969 37.9969C55.0289 37.9969 54.4062 38.6195 54.4062 39.3875C54.4062 40.1555 55.0289 40.7781 55.7969 40.7781Z" stroke="#2C3E50" stroke-width="2" stroke-miterlimit="10" stroke-linecap="round" stroke-linejoin="round"/>
<path d="M65.5312 40.7781C66.2993 40.7781 66.9219 40.1555 66.9219 39.3875C66.9219 38.6195 66.2993 37.9969 65.5312 37.9969C64.7632 37.9969 64.1406 38.6195 64.1406 39.3875C64.1406 40.1555 64.7632 40.7781 65.5312 40.7781Z" stroke="#2C3E50" stroke-width="2" stroke-miterlimit="10" stroke-linecap="round" stroke-linejoin="round"/>
<path d="M36.3281 50.5125C37.0961 50.5125 37.7188 49.8899 37.7188 49.1219C37.7188 48.3539 37.0961 47.7313 36.3281 47.7313C35.5601 47.7313 34.9375 48.3539 34.9375 49.1219C34.9375 49.8899 35.5601 50.5125 36.3281 50.5125Z" stroke="#2C3E50" stroke-width="2" stroke-miterlimit="10" stroke-linecap="round" stroke-linejoin="round"/>
<path d="M26.5938 50.5125C27.3618 50.5125 27.9844 49.8899 27.9844 49.1219C27.9844 48.3539 27.3618 47.7313 26.5938 47.7313C25.8257 47.7313 25.2031 48.3539 25.2031 49.1219C25.2031 49.8899 25.8257 50.5125 26.5938 50.5125Z" stroke="#2C3E50" stroke-width="2" stroke-miterlimit="10" stroke-linecap="round" stroke-linejoin="round"/>
<path d="M16.8594 50.5125C17.6274 50.5125 18.25 49.8899 18.25 49.1219C18.25 48.3539 17.6274 47.7313 16.8594 47.7313C16.0914 47.7313 15.4688 48.3539 15.4688 49.1219C15.4688 49.8899 16.0914 50.5125 16.8594 50.5125Z" stroke="#2C3E50" stroke-width="2" stroke-miterlimit="10" stroke-linecap="round" stroke-linejoin="round"/>
<path d="M46.0625 50.5125C46.8305 50.5125 47.4531 49.8899 47.4531 49.1219C47.4531 48.3539 46.8305 47.7313 46.0625 47.7313C45.2945 47.7313 44.6719 48.3539 44.6719 49.1219C44.6719 49.8899 45.2945 50.5125 46.0625 50.5125Z" stroke="#2C3E50" stroke-width="2" stroke-miterlimit="10" stroke-linecap="round" stroke-linejoin="round"/>
<path d="M36.3281 60.2469C37.0961 60.2469 37.7188 59.6243 37.7188 58.8563C37.7188 58.0882 37.0961 57.4656 36.3281 57.4656C35.5601 57.4656 34.9375 58.0882 34.9375 58.8563C34.9375 59.6243 35.5601 60.2469 36.3281 60.2469Z" stroke="#2C3E50" stroke-width="2" stroke-miterlimit="10" stroke-linecap="round" stroke-linejoin="round"/>
<path d="M26.5938 60.2469C27.3618 60.2469 27.9844 59.6243 27.9844 58.8563C27.9844 58.0882 27.3618 57.4656 26.5938 57.4656C25.8257 57.4656 25.2031 58.0882 25.2031 58.8563C25.2031 59.6243 25.8257 60.2469 26.5938 60.2469Z" stroke="#2C3E50" stroke-width="2" stroke-miterlimit="10" stroke-linecap="round" stroke-linejoin="round"/>
<path d="M16.8594 60.2469C17.6274 60.2469 18.25 59.6243 18.25 58.8563C18.25 58.0882 17.6274 57.4656 16.8594 57.4656C16.0914 57.4656 15.4688 58.0882 15.4688 58.8563C15.4688 59.6243 16.0914 60.2469 16.8594 60.2469Z" stroke="#2C3E50" stroke-width="2" stroke-miterlimit="10" stroke-linecap="round" stroke-linejoin="round"/>
<path d="M40.5 18.25V9.90625" stroke="#2C3E50" stroke-width="2" stroke-miterlimit="10" stroke-linecap="round" stroke-linejoin="round"/>
<path d="M23.8125 18.25V9.90625" stroke="#2C3E50" stroke-width="2" stroke-miterlimit="10" stroke-linecap="round" stroke-linejoin="round"/>
<path d="M57.1875 18.25V9.90625" stroke="#2C3E50" stroke-width="2" stroke-miterlimit="10" stroke-linecap="round" stroke-linejoin="round"/>
<path d="M7.125 27.9844H73.875" stroke="#2C3E50" stroke-width="2" stroke-miterlimit="10" stroke-linecap="round" stroke-linejoin="round"/>
<path d="M64.4189 78.1859C72.9439 78.1859 79.8548 71.275 79.8548 62.75C79.8548 54.225 72.9439 47.3141 64.4189 47.3141C55.8938 47.3141 48.9829 54.225 48.9829 62.75C48.9829 71.275 55.8938 78.1859 64.4189 78.1859Z" fill="#D4C8BC"/>
<path d="M56.353 49.539L64.1405 62.4719L78.8811 57.4656C78.8811 57.4656 76.239 50.5125 69.703 48.2875C63.1671 45.9234 58.1608 48.2875 56.353 49.539Z" fill="#FFD766"/>
<path d="M64.4189 78.1859C72.9439 78.1859 79.8548 71.275 79.8548 62.75C79.8548 54.225 72.9439 47.3141 64.4189 47.3141C55.8938 47.3141 48.9829 54.225 48.9829 62.75C48.9829 71.275 55.8938 78.1859 64.4189 78.1859Z" stroke="#2C3E50" stroke-width="2" stroke-miterlimit="10" stroke-linecap="round" stroke-linejoin="round"/>
<path d="M64.4187 62.75L71.5109 60.2469" stroke="#2C3E50" stroke-width="2" stroke-miterlimit="10" stroke-linecap="round" stroke-linejoin="round"/>
<path d="M64.4189 62.75L58.7173 53.5719" stroke="#2C3E50" stroke-width="2" stroke-miterlimit="10" stroke-linecap="round" stroke-linejoin="round"/>
</svg>
