<svg width="77" height="69" viewBox="0 0 77 69" fill="none" xmlns="http://www.w3.org/2000/svg">
<path d="M75.2424 2.31H2.74243V51.9725H75.2424V2.31Z" fill="#FFEABB"/>
<path d="M13.3999 37.0012H30.0386C30.6065 36.9477 31.1793 37.0132 31.7203 37.1938C32.2614 37.3744 32.7587 37.666 33.1806 38.0499C33.6024 38.4338 33.9394 38.9015 34.1701 39.4232C34.4007 39.9449 34.5198 40.509 34.5198 41.0794C34.5198 41.6498 34.4007 42.2139 34.1701 42.7355C33.9394 43.2572 33.6024 43.725 33.1806 44.1089C32.7587 44.4928 32.2614 44.7844 31.7203 44.9649C31.1793 45.1455 30.6065 45.2111 30.0386 45.1575H13.3999C12.832 45.2111 12.2592 45.1455 11.7182 44.9649C11.1771 44.7844 10.6798 44.4928 10.2579 44.1089C9.83606 43.725 9.49904 43.2572 9.26843 42.7355C9.03782 42.2139 8.9187 41.6498 8.9187 41.0794C8.9187 40.509 9.03782 39.9449 9.26843 39.4232C9.49904 38.9015 9.83606 38.4338 10.2579 38.0499C10.6798 37.666 11.1771 37.3744 11.7182 37.1938C12.2592 37.0132 12.832 36.9477 13.3999 37.0012Z" fill="#F94060"/>
<path d="M75.2787 2.31H68.21V51.9725H75.2787V2.31Z" fill="#F7BF75"/>
<path d="M44.72 46.4987L36.4912 60.7087L43.415 60.7812L46.895 66.69L56.3562 50.3413L44.72 46.4987Z" fill="#F94060"/>
<path d="M52.1511 53.0237L60.0536 66.69L63.5336 60.7812L70.4211 60.7087L62.2286 46.4987L52.1511 53.0237Z" fill="#F94060"/>
<path d="M62.5913 43.9975C62.5913 45.8058 62.0546 47.5734 61.0492 49.0764C60.0438 50.5794 58.615 51.7502 56.9437 52.4405C55.2724 53.1309 53.4338 53.3097 51.6608 52.9542C49.8878 52.5988 48.2601 51.7252 46.984 50.444C45.7079 49.1628 44.8408 47.5317 44.4924 45.7573C44.1441 43.9829 44.3301 42.1451 45.0271 40.4765C45.7241 38.8079 46.9006 37.3838 48.4076 36.3844C49.9146 35.385 51.6843 34.8553 53.4925 34.8625C55.909 34.8721 58.2232 35.8388 59.9285 37.5509C61.6339 39.263 62.5913 41.581 62.5913 43.9975Z" fill="#F7BF75"/>
<path d="M58.4225 43.9975C58.4225 44.9813 58.1303 45.9429 57.5829 46.7603C57.0356 47.5778 56.2579 48.2143 55.3483 48.5891C54.4387 48.9639 53.4383 49.0601 52.474 48.8655C51.5096 48.6709 50.6248 48.1943 49.9317 47.4961C49.2387 46.798 48.7686 45.9097 48.581 44.944C48.3935 43.9782 48.4971 42.9785 48.8785 42.0717C49.26 41.1649 49.9021 40.3918 50.7236 39.8505C51.545 39.3092 52.5087 39.0241 53.4925 39.0312C54.143 39.0312 54.787 39.1599 55.3875 39.41C55.988 39.66 56.5331 40.0264 56.9914 40.488C57.4497 40.9496 57.8121 41.4974 58.0577 42.0997C58.3033 42.7021 58.4273 43.347 58.4225 43.9975Z" fill="#F1734D"/>
<path d="M75.2424 0.497498H2.74243C2.26173 0.497498 1.80071 0.688457 1.4608 1.02837C1.12089 1.36828 0.929932 1.82929 0.929932 2.31V51.9725C0.939212 52.4503 1.13315 52.9059 1.47107 53.2439C1.80899 53.5818 2.26463 53.7757 2.74243 53.785H38.4124L34.7874 59.8025C34.6284 60.078 34.5446 60.3906 34.5446 60.7087C34.5446 61.0269 34.6284 61.3395 34.7874 61.615C34.9456 61.8889 35.1727 62.1167 35.4461 62.2757C35.7196 62.4347 36.0299 62.5193 36.3462 62.5212H42.2187L45.1912 67.5962C45.3538 67.8634 45.5829 68.084 45.856 68.2365C46.1292 68.3889 46.4371 68.4681 46.7499 68.4662C47.0685 68.4761 47.3835 68.3964 47.659 68.2362C47.9346 68.076 48.1596 67.8417 48.3087 67.56L53.3474 58.8962L58.3499 67.56C58.499 67.8417 58.7241 68.076 58.9996 68.2362C59.2751 68.3964 59.5901 68.4761 59.9087 68.4662C60.2215 68.4681 60.5294 68.3889 60.8026 68.2365C61.0757 68.084 61.3048 67.8634 61.4674 67.5962L64.4399 62.5212H70.3124C70.6287 62.5193 70.939 62.4347 71.2125 62.2757C71.4859 62.1167 71.713 61.8889 71.8712 61.615C72.0303 61.3395 72.114 61.0269 72.114 60.7087C72.114 60.3906 72.0303 60.078 71.8712 59.8025L68.2462 53.785H74.9524C75.4331 53.785 75.8941 53.594 76.2341 53.2541C76.574 52.9142 76.7649 52.4532 76.7649 51.9725V2.31C76.7705 1.87556 76.6199 1.45357 76.3404 1.12089C76.061 0.788206 75.6713 0.566978 75.2424 0.497498ZM46.7499 63.1012L44.8287 59.8387C44.6628 59.5717 44.434 59.3494 44.1622 59.1914C43.8905 59.0334 43.5841 58.9445 43.2699 58.9325H39.4999L44.4662 50.3413C45.9928 52.4884 48.247 54.0084 50.8099 54.6187L51.2449 55.3075L46.7499 63.1012ZM53.3474 51.2837C51.9135 51.2837 50.5118 50.8585 49.3195 50.0619C48.1273 49.2653 47.198 48.133 46.6493 46.8082C46.1006 45.4834 45.957 44.0257 46.2367 42.6193C46.5165 41.213 47.207 39.9212 48.2209 38.9072C49.2348 37.8933 50.5267 37.2028 51.933 36.9231C53.3394 36.6433 54.7971 36.7869 56.1219 37.3356C57.4467 37.8844 58.5789 38.8136 59.3756 40.0059C60.1722 41.1981 60.5974 42.5998 60.5974 44.0337C60.5978 45.9317 59.8539 47.7541 58.5255 49.1097C57.197 50.4652 55.39 51.2458 53.4924 51.2837H53.3474ZM63.3887 58.9325C63.0745 58.9445 62.7682 59.0334 62.4964 59.1914C62.2246 59.3494 61.9958 59.5717 61.8299 59.8387L59.9087 63.1012L55.0874 54.7275C56.5279 54.5188 57.9119 54.023 59.1572 53.2695C60.4026 52.5161 61.484 51.5203 62.3374 50.3413L67.3037 58.9325H63.3887ZM73.2849 50.16H66.4337L64.1862 46.245C64.3321 45.5048 64.4049 44.752 64.4037 43.9975C64.4037 41.1133 63.2579 38.3472 61.2185 36.3077C59.179 34.2683 56.4129 33.1225 53.5287 33.1225C50.6445 33.1225 47.8784 34.2683 45.8389 36.3077C43.7994 38.3472 42.6537 41.1133 42.6537 43.9975C42.6525 44.752 42.7253 45.5048 42.8712 46.245L40.6237 50.16H4.55493V4.1225H73.4299L73.2849 50.16Z" fill="black"/>
<path d="M55.1962 42.185H51.7524C51.2717 42.185 50.8107 42.376 50.4708 42.7159C50.1309 43.0558 49.9399 43.5168 49.9399 43.9975C49.9399 44.4782 50.1309 44.9392 50.4708 45.2791C50.8107 45.619 51.2717 45.81 51.7524 45.81H55.1962C55.6769 45.81 56.1379 45.619 56.4778 45.2791C56.8177 44.9392 57.0087 44.4782 57.0087 43.9975C57.0087 43.5168 56.8177 43.0558 56.4778 42.7159C56.1379 42.376 55.6769 42.185 55.1962 42.185Z" fill="black"/>
<path d="M13.4 46.97H30.0388C30.8512 47.0338 31.668 46.9288 32.4379 46.6617C33.2078 46.3946 33.9141 45.9711 34.5125 45.4179C35.1109 44.8647 35.5883 44.1937 35.9149 43.447C36.2414 42.7004 36.41 41.8943 36.41 41.0794C36.41 40.2645 36.2414 39.4583 35.9149 38.7117C35.5883 37.9651 35.1109 37.2941 34.5125 36.7408C33.9141 36.1876 33.2078 35.7641 32.4379 35.497C31.668 35.2299 30.8512 35.125 30.0388 35.1887H13.4C12.5876 35.125 11.7708 35.2299 11.0009 35.497C10.231 35.7641 9.52463 36.1876 8.92627 36.7408C8.32791 37.2941 7.85046 37.9651 7.52392 38.7117C7.19738 39.4583 7.02881 40.2645 7.02881 41.0794C7.02881 41.8943 7.19738 42.7004 7.52392 43.447C7.85046 44.1937 8.32791 44.8647 8.92627 45.4179C9.52463 45.9711 10.231 46.3946 11.0009 46.6617C11.7708 46.9288 12.5876 47.0338 13.4 46.97ZM13.4 38.8137H30.0388C30.3603 38.773 30.6869 38.8012 30.9968 38.8964C31.3066 38.9916 31.5926 39.1517 31.8358 39.366C32.079 39.5803 32.2738 39.8439 32.4072 40.1394C32.5407 40.4348 32.6097 40.7552 32.6097 41.0794C32.6097 41.4035 32.5407 41.724 32.4072 42.0194C32.2738 42.3148 32.079 42.5784 31.8358 42.7927C31.5926 43.0071 31.3066 43.1672 30.9968 43.2624C30.6869 43.3576 30.3603 43.3858 30.0388 43.345H13.4C13.0784 43.3858 12.7519 43.3576 12.442 43.2624C12.1322 43.1672 11.8461 43.0071 11.6029 42.7927C11.3597 42.5784 11.165 42.3148 11.0315 42.0194C10.8981 41.724 10.8291 41.4035 10.8291 41.0794C10.8291 40.7552 10.8981 40.4348 11.0315 40.1394C11.165 39.8439 11.3597 39.5803 11.6029 39.366C11.8461 39.1517 12.1322 38.9916 12.442 38.8964C12.7519 38.8012 13.0784 38.773 13.4 38.8137Z" fill="black"/>
<path d="M33.99 12.75H43.995C44.4757 12.75 44.9367 12.559 45.2766 12.2191C45.6165 11.8792 45.8075 11.4182 45.8075 10.9375C45.8075 10.4568 45.6165 9.99578 45.2766 9.65587C44.9367 9.31596 44.4757 9.125 43.995 9.125H33.99C33.5093 9.125 33.0483 9.31596 32.7084 9.65587C32.3685 9.99578 32.1775 10.4568 32.1775 10.9375C32.1868 11.4153 32.3807 11.8709 32.7186 12.2089C33.0565 12.5468 33.5122 12.7407 33.99 12.75Z" fill="black"/>
<path d="M25 19.565H52.695C53.1757 19.565 53.6367 19.374 53.9766 19.0341C54.3165 18.6942 54.5075 18.2332 54.5075 17.7525C54.5075 17.2718 54.3165 16.8108 53.9766 16.4709C53.6367 16.131 53.1757 15.94 52.695 15.94H25C24.5193 15.94 24.0583 16.131 23.7184 16.4709C23.3785 16.8108 23.1875 17.2718 23.1875 17.7525C23.1875 18.2332 23.3785 18.6942 23.7184 19.0341C24.0583 19.374 24.5193 19.565 25 19.565Z" fill="black"/>
<path d="M25 26.5612H52.695C53.1757 26.5612 53.6367 26.3703 53.9766 26.0304C54.3165 25.6905 54.5075 25.2295 54.5075 24.7487C54.5075 24.268 54.3165 23.807 53.9766 23.4671C53.6367 23.1272 53.1757 22.9362 52.695 22.9362H25C24.5193 22.9362 24.0583 23.1272 23.7184 23.4671C23.3785 23.807 23.1875 24.268 23.1875 24.7487C23.1875 25.2295 23.3785 25.6905 23.7184 26.0304C24.0583 26.3703 24.5193 26.5612 25 26.5612Z" fill="black"/>
</svg>
