<svg width="50" height="67" viewBox="0 0 50 67" fill="none" xmlns="http://www.w3.org/2000/svg">
<g clip-path="url(#clip0_151_742)">
<path d="M28.8222 53.6479H5.2146V56.2321H28.8222V53.6479Z" fill="#7A7B7B"/>
<path d="M28.8222 60.6111H5.2146V63.1954H28.8222V60.6111Z" fill="#7A7B7B"/>
<path d="M28.8222 57.1654H5.2146V59.7018H28.8222V57.1654Z" fill="#7A7B7B"/>
<path d="M35.0971 3.82857V4.78571H31.7246V5.74286H33.1621V6.62821H31.7246V7.58536H33.1621V8.51857H31.7246V9.57143H33.1621V10.4329H31.7246V11.39H35.0971V12.3232H31.7246V13.2804H33.1621V14.2136H31.7246V15.1707H33.1621V16.1039H31.7246V17.0611H33.1621V17.9943H31.7246V18.9514H35.0971V19.8846H31.7246V20.8418H33.1621V21.775H31.7246V22.7321H33.1621V23.6654H31.7246V24.6225H33.1621V25.5557H31.7246V26.5129H35.0971V27.4461H31.7246V28.4032H33.1621V29.3364H31.7246V30.2936H33.1621V31.2268H31.7246V32.1839H33.1621V33.1171H31.7246V34.0743H35.0971V35.0075H31.7246V35.8929H33.1621V36.8261H31.7246V37.7832H33.1621V38.7164H31.7246V39.6736H33.1621V40.6786H31.7246V41.6357H35.0971V42.5929H31.7246V43.55H33.1621V44.4832H31.7246V45.4643H33.1621V46.3975H31.7246V47.3546H33.1621V48.2879H31.7246V50.25L48.3108 64.6071V61.4964H46.8733V60.6111H48.3108V59.6539H46.8733V58.6968H48.3108V57.7396H44.9382V56.8064H48.3108V55.8493H46.8733V55.0357H48.3108V54.0786H46.8733V53.0257H48.3108V52.0686H46.8733V51.1354H48.3108V50.25H44.9382V49.245H48.3108V48.2879H46.8733V47.3546H48.3108V46.3975H46.8733V45.4643H48.3108V44.5071H46.8733V43.5739H48.3108V42.5929H44.9382V41.6836H48.3108V40.6786H46.8733V39.7693H48.3108V38.8121H46.8733V37.8789H48.3108V36.9218H46.8733V35.8929H48.3108V34.9357H44.9382V34.0982H48.3108V33.1411H46.8733V32.2079H48.3108V31.2507H46.8733V30.3175H48.3108V29.3604H46.8733V28.4271H48.3108V27.47H44.9382V26.5368H48.3108V25.5796H46.8733V24.6464H48.3108V23.6893H46.8733V22.7561H48.3108V21.775H46.8733V20.8418H48.3108V19.8846H44.9382V18.9514H48.3108V17.9943H46.8733V17.0611H48.3108V16.1039H46.8733V15.1707H48.3108V14.2136H46.8733V13.2804H48.3108V12.3232H44.9382V11.39H48.3108V10.4329H46.8733V9.57143H48.3108V8.51857H46.8733V7.60929H48.3108V6.62821H46.8733V5.71893H48.3108V4.78571H44.9382V3.82857H48.3108V1.43571H31.7246V3.82857H35.0971ZM37.8615 4.30714L40.0177 3.54143L42.091 4.30714L43.0585 6.14964L42.1739 8.01607L40.0177 8.78179L37.8062 8.01607L36.9216 6.14964L37.8615 4.30714Z" fill="#FBCA39"/>
<path d="M30.5912 51.2311H2.146V65.5882H47.1774L30.5912 51.2311ZM29.9001 64.1286H4.16398V52.6429H29.9001V64.1286ZM35.8435 64.6071L34.2402 65.1814L32.6092 64.6071L32.0011 63.315L32.6645 61.9271L34.2678 61.3529L35.8712 61.9271L36.5346 63.315L35.8435 64.6071ZM35.8435 58.9361L34.2402 59.5104L32.6369 58.9361L32.0011 57.6439L32.6645 56.2561L34.2678 55.6818L35.8712 56.2561L36.5346 57.6439L35.8435 58.9361ZM40.7917 65.1814L39.1884 64.6071L38.5249 63.2193L39.1884 61.8314L40.7917 61.2571L42.395 61.8314L43.0585 63.315L42.395 64.6071L40.7917 65.1814Z" fill="#B2B2B2"/>
<path d="M30.1213 0V49.8671H0.542725V67H49.9142V0H30.1213ZM48.3108 1.38786V3.78071H44.9383V4.78571H48.3108V5.74286H46.8734V6.62821H48.3108V7.58536H46.8734V8.51857H48.3108V9.57143H46.8734V10.4329H48.3108V11.39H44.9383V12.3232H48.3108V13.2804H46.8734V14.2136H48.3108V15.1707H46.8734V16.1039H48.3108V17.0611H46.8734V17.9943H48.3108V18.9514H44.9383V19.8846H48.3108V20.8418H46.8734V21.775H48.3108V22.7321H46.8734V23.6654H48.3108V24.6225H46.8734V25.5557H48.3108V26.5129H44.9383V27.4461H48.3108V28.4032H46.8734V29.3364H48.3108V30.2936H46.8734V31.2268H48.3108V32.1839H46.8734V33.1171H48.3108V34.0743H44.9383V35.0075H48.3108V35.8929H46.8734V36.8261H48.3108V37.7832H46.8734V38.7164H48.3108V39.6736H46.8734V40.6786H48.3108V41.6357H44.9383V42.5929H48.3108V43.55H46.8734V44.4832H48.3108V45.4643H46.8734V46.3975H48.3108V47.3546H46.8734V48.2879H48.3108V49.245H44.9383V50.25H48.3108V51.2071H46.8734V52.1404H48.3108V53.0975H46.8734V54.0307H48.3108V55.0357H46.8734V55.9689H48.3108V56.9261H44.9383V57.8593H48.3108V58.8164H46.8734V59.7496H48.3108V60.7068H46.8734V61.64H48.3108V64.6071L31.7247 50.25V48.2639H33.1621V47.3546H31.7247V46.3975H33.1621V45.4643H31.7247V44.5071H33.1621V43.5739H31.7247V42.5929H35.0972V41.6836H31.7247V40.6786H33.1621V39.7693H31.7247V38.8121H33.1621V37.8789H31.7247V36.9218H33.1621V35.8929H31.7247V34.9357H35.0972V34.0982H31.7247V33.1411H33.1621V32.2079H31.7247V31.2507H33.1621V30.3175H31.7247V29.3604H33.1621V28.4271H31.7247V27.47H35.0972V26.5368H31.7247V25.5796H33.1621V24.6464H31.7247V23.6893H33.1621V22.7561H31.7247V21.775H33.1621V20.8418H31.7247V19.8846H35.0972V18.9514H31.7247V17.9943H33.1621V17.0611H31.7247V16.1039H33.1621V15.1707H31.7247V14.2136H33.1621V13.2804H31.7247V12.3232H35.0972V11.39H31.7247V10.4329H33.1621V9.57143H31.7247V8.51857H33.1621V7.60928H31.7247V6.62821H33.1621V5.71893H31.7247V4.78571H35.0972V3.82857H31.7247V1.43571H48.3108V1.38786ZM2.14605 51.2311H30.5913L47.1774 65.5882H2.14605V51.2311Z" fill="black"/>
<path d="M39.9348 8.78179L42.091 8.01607L43.0585 6.14964L42.091 4.30714L39.9348 3.54143L37.8062 4.30714L36.9216 6.17357L37.8062 8.01607L39.9348 8.78179ZM38.6079 5.00107L39.9348 4.5225L41.2617 5.00107L41.8145 6.14964L41.2617 7.29821L39.9348 7.77678L38.6079 7.29821L38.055 6.14964L38.6079 5.00107Z" fill="black"/>
<path d="M34.2127 62.3579L33.4387 62.645L33.1069 63.315L33.4387 64.0089L34.2127 64.2961L35.0143 64.0089L35.3461 63.315L35.0143 62.645L34.2127 62.3579Z" fill="#424243"/>
<path d="M34.2403 61.3529L32.637 61.9271L32.0012 63.315L32.6094 64.6071L34.2127 65.1814L35.8437 64.6071L36.5071 63.2193L35.8437 61.8314L34.2403 61.3529ZM35.042 64.0089L34.2403 64.2961L33.4387 64.0089L33.107 63.315L33.4387 62.6211L34.2403 62.3339L35.042 62.6211L35.3737 63.315L35.042 64.0089Z" fill="black"/>
<path d="M4.16406 64.1286H29.9002V52.6429H4.16406V64.1286ZM5.24216 63.1954V60.6111H28.8498V63.1954H5.24216ZM5.24216 59.6779V57.1654H28.8498V59.7018H5.24216V59.6779ZM28.8498 53.6479V56.2321H5.24216V53.6479H28.8498Z" fill="black"/>
<path d="M40.7918 62.3579L39.9902 62.645L39.6584 63.315L39.9902 64.0089L40.7918 64.2961L41.5659 64.0089L41.8976 63.315L41.5659 62.645L40.7918 62.3579Z" fill="#424243"/>
<path d="M42.395 61.9271L40.7917 61.3529L39.1883 61.9271L38.5249 63.315L39.1883 64.6071L40.7917 65.1814L42.395 64.6071L43.0584 63.315L42.395 61.9271ZM41.5657 64.0089L40.764 64.2961L39.9624 64.0089L39.6306 63.315L39.9624 62.6211L40.764 62.3339L41.5657 62.6211L41.8974 63.315L41.5657 64.0089Z" fill="black"/>
<path d="M34.2127 56.6629L33.4387 56.95L33.1069 57.6439L33.4387 58.3379L34.2127 58.6011L35.0143 58.3379L35.3461 57.6439L35.0143 56.95L34.2127 56.6629Z" fill="#424243"/>
<path d="M34.2403 55.6579L32.637 56.2321L32.0012 57.6439L32.6647 59.0318L34.268 59.6061L35.8713 59.0318L36.5348 57.6439L35.8713 56.2561L34.2403 55.6579ZM35.042 58.3139L34.2403 58.6011L33.4387 58.3139L33.107 57.62L33.4387 56.9261L34.2403 56.6389L35.042 56.9261L35.3737 57.62L35.042 58.3139Z" fill="black"/>
</g>
<defs>
<clipPath id="clip0_151_742">
<rect width="49.3714" height="67" fill="white" transform="translate(0.542725)"/>
</clipPath>
</defs>
</svg>
