<svg width="95" height="95" viewBox="0 0 95 95" fill="none" xmlns="http://www.w3.org/2000/svg">
<mask id="mask0_151_848" style="mask-type:luminance" maskUnits="userSpaceOnUse" x="0" y="0" width="95" height="95">
<path d="M95 0H0V95H95V0Z" fill="white"/>
</mask>
<g mask="url(#mask0_151_848)">
<path d="M91.208 40.8328L54.1283 3.75316C52.9705 2.59536 51.2783 2.77348 50.1205 3.93128L3.86736 49.5312C2.70956 50.689 2.65018 53.0343 3.80799 54.1922L40.769 91.1531C41.9268 92.3109 43.8268 92.3406 44.9846 91.1828L91.1783 44.989C92.3361 43.8312 92.3658 41.9906 91.208 40.8328Z" fill="#FFC44D"/>
<path d="M71.2529 80.1727H92.0342M86.0967 68.2977H92.0342M17.8154 53.4539H50.4717C52.0481 53.4539 53.4404 52.1566 53.4404 50.4852V20.7976M41.5654 65.3289V74.2352M74.2217 41.5789H65.3154M91.202 40.8337C92.3628 41.9945 92.3272 43.8381 91.1664 44.9959L44.9845 91.1808C43.8237 92.3416 41.9326 92.3297 40.7748 91.1689L3.80502 54.1991C2.64424 53.0383 2.71549 50.693 3.87627 49.5351L50.1145 3.944C51.2753 2.78617 52.9556 2.58727 54.1164 3.74806L91.202 40.8337Z" stroke="black" stroke-width="5" stroke-linecap="round" stroke-linejoin="round"/>
</g>
</svg>
