<svg width="74" height="75" viewBox="0 0 74 75" fill="none" xmlns="http://www.w3.org/2000/svg">
<g clip-path="url(#clip0_151_806)">
<path d="M54.7719 41.6505L53.6426 46.95H46.6541L45.5248 41.6565C44.0485 41.2532 42.6301 40.6572 41.3053 39.8835L39.8461 40.836C40.9289 43.4128 41.0882 46.2923 40.2966 48.9757C39.505 51.659 37.8122 53.9773 35.5114 55.5287C33.2107 57.0801 30.4471 57.7671 27.6992 57.4705C24.9513 57.174 22.3923 55.9126 20.4656 53.905C18.5388 51.8973 17.3656 49.2698 17.1492 46.4776C16.9328 43.6855 17.6869 40.9046 19.2808 38.6166C20.8746 36.3287 23.2079 34.6779 25.8764 33.9501C28.5449 33.2224 31.3805 33.4636 33.892 34.632L34.7697 33.2505C34.0067 31.9078 33.4192 30.4702 33.0218 28.974L27.7989 27.8295V20.7465L33.0218 19.602C33.1328 19.182 33.2601 18.771 33.4007 18.3645L33.2527 17.7H24.6687L23.2819 24.204C21.4692 24.6983 19.7279 25.4299 18.1019 26.3805L12.58 22.776L9.68663 25.7055L9.39063 25.998L6.51203 28.929L10.064 34.5225C9.1271 36.171 8.40525 37.9357 7.91655 39.7725L1.49927 41.178V49.878L7.91655 51.2835C8.40419 53.1259 9.12606 54.8962 10.064 56.55L6.51203 62.139L9.40247 65.0685L9.69847 65.3685L12.58 68.292L18.0989 64.692C19.7253 65.642 21.4665 66.3736 23.2789 66.8685L24.6657 73.3725H33.2497L34.6379 66.8685C36.4504 66.3737 38.1917 65.6421 39.8179 64.692L45.3369 68.292L48.2288 65.3625L48.5174 65.0625L51.4093 62.133L47.8573 56.5395C48.7951 54.8913 49.5174 53.1265 50.0063 51.2895L56.4221 49.884V41.184L56.2977 41.157C55.796 41.3415 55.2913 41.508 54.7719 41.6505Z" fill="#49494A"/>
<path d="M67.2793 19.602C66.8819 18.1058 66.2944 16.6683 65.5315 15.3255L68.4263 10.7715L66.0732 8.38651L65.8378 8.14801L63.4832 5.76301L58.9914 8.70001C57.6665 7.92676 56.2481 7.33128 54.7719 6.92851L53.6426 1.63501H46.6541L45.5248 6.92551C44.0484 7.32923 42.63 7.92572 41.3054 8.70001L36.8121 5.76301L34.4589 8.14801L34.2236 8.38651L31.8704 10.7715L34.7652 15.3255C34.0023 16.6683 33.4148 18.1058 33.0174 19.602L27.7944 20.7465V27.8295L33.0174 28.974C33.4148 30.4702 34.0023 31.9078 34.7652 33.2505L31.8704 37.8L34.2236 40.185L34.4589 40.4235L36.8121 42.81L41.3054 39.8745C42.6301 40.6482 44.0485 41.2442 45.5248 41.6475L46.6541 46.95H53.6426L54.7719 41.6565C56.2482 41.2532 57.6666 40.6572 58.9914 39.8835L63.4832 42.819L65.8378 40.4325L66.0732 40.194L68.4263 37.809L65.5315 33.2565C66.2944 31.9138 66.8819 30.4762 67.2793 28.98L72.5023 27.8355V20.7465L67.2793 19.602Z" fill="#FFC43D"/>
<path d="M67.2793 19.602C66.8819 18.1058 66.2944 16.6683 65.5315 15.3255L68.4263 10.7715L66.0732 8.38651L65.8378 8.14801L63.4832 5.76301L58.9913 8.70001C57.6665 7.92676 56.2481 7.33128 54.7719 6.92851L53.6426 1.63501H46.6541L45.5248 6.92551C44.0484 7.32923 42.63 7.92572 41.3054 8.70001L36.8121 5.76301L34.4589 8.14801L34.2236 8.38651L31.8704 10.7715L34.7652 15.3255C34.0023 16.6683 33.4148 18.1058 33.0174 19.602L27.7944 20.7465V27.8295L33.0174 28.974C33.4148 30.4702 34.0023 31.9078 34.7652 33.2505L31.8704 37.8L34.2236 40.185L34.4589 40.4235L36.8121 42.81L41.3054 39.8745C42.6301 40.6482 44.0485 41.2442 45.5248 41.6475L46.6541 46.95H53.6426L54.7719 41.6565C56.2482 41.2532 57.6666 40.6572 58.9913 39.8835L63.4832 42.819L65.8378 40.4325L66.0732 40.194L68.4263 37.809L65.5315 33.2565C66.2944 31.9138 66.8819 30.4762 67.2793 28.98L72.5023 27.8355V20.7465L67.2793 19.602Z" stroke="black" stroke-width="2" stroke-linecap="round" stroke-linejoin="round"/>
<path d="M54.7719 41.6505L53.6426 46.95H46.6541L45.5248 41.6565C44.0485 41.2532 42.6301 40.6572 41.3053 39.8835L39.8461 40.836C40.9289 43.4128 41.0882 46.2923 40.2966 48.9757C39.505 51.6591 37.8122 53.9773 35.5114 55.5287C33.2107 57.0801 30.4471 57.7671 27.6992 57.4705C24.9513 57.174 22.3923 55.9126 20.4656 53.905C18.5388 51.8973 17.3656 49.2698 17.1492 46.4776C16.9328 43.6855 17.6869 40.9046 19.2808 38.6166C20.8746 36.3287 23.2079 34.6779 25.8764 33.9501C28.5449 33.2224 31.3805 33.4636 33.892 34.632L34.7697 33.2505C34.0067 31.9078 33.4192 30.4702 33.0218 28.974L27.7989 27.8295V20.7465L33.0218 19.602C33.1328 19.182 33.2601 18.771 33.4007 18.3645L33.2527 17.7H24.6687L23.2819 24.204C21.4692 24.6983 19.7279 25.4299 18.1019 26.3805L12.58 22.776L9.68663 25.7055L9.39063 25.998L6.51203 28.929L10.064 34.5225C9.1271 36.171 8.40525 37.9357 7.91655 39.7725L1.49927 41.178V49.878L7.91655 51.2835C8.40419 53.1259 9.12606 54.8962 10.064 56.55L6.51203 62.139L9.40247 65.0685L9.69847 65.3685L12.58 68.292L18.0989 64.692C19.7253 65.642 21.4665 66.3736 23.2789 66.8685L24.6657 73.3725H33.2497L34.6379 66.8685C36.4504 66.3737 38.1917 65.6421 39.8179 64.692L45.3369 68.292L48.2288 65.3625L48.5174 65.0625L51.4093 62.133L47.8573 56.5395C48.7951 54.8913 49.5174 53.1265 50.0063 51.2895L56.4221 49.884V41.184L56.2977 41.157C55.796 41.3415 55.2913 41.508 54.7719 41.6505Z" stroke="black" stroke-width="2" stroke-linecap="round" stroke-linejoin="round"/>
<path d="M50.1483 36.678C57.0118 36.678 62.5758 31.0388 62.5758 24.0825C62.5758 17.1262 57.0118 11.487 50.1483 11.487C43.2847 11.487 37.7207 17.1262 37.7207 24.0825C37.7207 31.0388 43.2847 36.678 50.1483 36.678Z" fill="#FAAE17"/>
<path d="M44.0093 24.8205L48.2717 28.95L56.8483 20.2575" stroke="black" stroke-width="2" stroke-linecap="round" stroke-linejoin="round"/>
</g>
<defs>
<clipPath id="clip0_151_806">
<rect width="74" height="75" fill="white"/>
</clipPath>
</defs>
</svg>
