<svg width="24" height="30" viewBox="0 0 24 30" fill="none" xmlns="http://www.w3.org/2000/svg">
<path d="M11.8251 9.27824C11.067 9.27824 10.4518 8.49478 10.4518 7.52918C10.4518 6.5624 11.067 5.78125 11.8251 5.78125C12.5834 5.78125 13.1985 6.56246 13.1985 7.52918C13.1985 8.49478 12.5834 9.27824 11.8251 9.27824Z" fill="#37404D"/>
<path d="M10.8927 11.6104V10.9977V10.4443H13.6394V11.6104H12.7238V21.5217H13.6394V22.6878H9.97718V21.5217H10.8927V11.6104Z" fill="#37404D"/>
<path d="M11.8824 0C18.2028 0 23.3269 6.52597 23.3269 14.5755C23.3269 22.6262 18.2028 29.151 11.8824 29.151C5.56207 29.151 0.437969 22.6262 0.437969 14.5755C0.437969 6.52597 5.56202 0 11.8824 0ZM11.8824 27.985C17.6883 27.985 22.4113 21.9691 22.4113 14.5755C22.4113 7.18187 17.6882 1.16604 11.8824 1.16604C6.0766 1.16604 1.35353 7.18187 1.35353 14.5755C1.35353 21.9691 6.0766 27.985 11.8824 27.985Z" fill="#37404D"/>
</svg>
