<svg width="30" height="44" viewBox="0 0 30 44" fill="none" xmlns="http://www.w3.org/2000/svg">
<path d="M15.0646 2.16669C7.01106 2.16669 0.481689 8.62502 0.481689 16.75C0.481689 19.4584 1.31856 22.1666 2.76044 24.4583C2.83002 24.6666 2.88336 24.6667 2.95586 24.8751L12.0042 41.5417C12.4292 42.7917 13.6334 43.8334 15 43.8334C16.3667 43.8334 17.5042 42.7917 17.9292 41.5417L28.0209 23.4166C29.0604 21.3333 29.6479 19.0417 29.6479 16.75C29.6479 8.62502 23.1188 2.16669 15.0646 2.16669ZM15 10.2917C19.0271 10.2917 22.2917 13.6251 22.2917 17.5834C22.2917 21.7501 19.0271 24.8751 15 24.8751C10.9729 24.8751 7.70836 21.7501 7.70836 17.5834C7.70836 13.6251 10.9729 10.2917 15 10.2917Z" fill="#C0392B"/>
<path d="M15.0646 0.148193C7.01106 0.148193 0.481689 6.67736 0.481689 14.7315C0.481689 17.6128 1.31856 20.2832 2.76044 22.5436C2.83002 22.654 2.88336 22.7624 2.95586 22.8707L12.0042 39.6665C12.4292 40.8874 13.6334 41.8144 15 41.8144C16.3667 41.8144 17.5042 40.8874 17.9292 39.6665L28.0209 21.4374C29.0604 19.4311 29.6479 17.1457 29.6479 14.7315C29.6479 6.67736 23.1188 0.148193 15.0646 0.148193ZM15 8.41653C19.0271 8.41653 22.2917 11.6811 22.2917 15.7082C22.2917 19.7353 19.0271 22.9999 15 22.9999C10.9729 22.9999 7.70836 19.7353 7.70836 15.7082C7.70836 11.6811 10.9729 8.41653 15 8.41653Z" fill="#E74C3C"/>
</svg>
