<svg width="95" height="95" viewBox="0 0 95 95" fill="none" xmlns="http://www.w3.org/2000/svg">
<path d="M47.5 95C73.7335 95 95 73.7335 95 47.5C95 21.2665 73.7335 0 47.5 0C21.2665 0 0 21.2665 0 47.5C0 73.7335 21.2665 95 47.5 95Z" fill="#DCC3A3"/>
<path d="M8.17236 74.1299C16.7186 86.7343 31.1369 95 47.5001 95C63.8633 95 78.2816 86.7343 86.8279 74.1299H8.17236Z" fill="#2B3B4E"/>
<path d="M78.057 42.1516H76.0374V72.2224H78.057V42.1516Z" fill="#F9B54C"/>
<path d="M56.7943 42.1516H54.7747V72.2224H56.7943V42.1516Z" fill="#F9B54C"/>
<path d="M35.5502 42.1516H33.5305V72.2224H35.5502V42.1516Z" fill="#F9B54C"/>
<path d="M82.6387 71.1004H28.9487V73.9242H82.6387V71.1004Z" fill="#FFD05B"/>
<path d="M82.6387 44.6949H28.9487V49.5571H82.6387V44.6949Z" fill="#FFD05B"/>
<path d="M82.6387 51.3898H28.9487V56.252H82.6387V51.3898Z" fill="#FFD05B"/>
<path d="M82.6387 58.1033H28.9487V62.9655H82.6387V58.1033Z" fill="#FFD05B"/>
<path d="M82.6387 64.7982H28.9487V69.6604H82.6387V64.7982Z" fill="#FFD05B"/>
<path d="M32.9234 26.3179L33.4177 24.8268L29.406 23.4968L28.9117 24.9879L32.9234 26.3179Z" fill="#F9B54C"/>
<path d="M25.4363 48.9137L25.9307 47.4227L21.919 46.0926L21.4246 47.5837L25.4363 48.9137Z" fill="#F9B54C"/>
<path d="M17.9568 71.4973L18.4512 70.0062L14.4395 68.6762L13.9451 70.1673L17.9568 71.4973Z" fill="#F9B54C"/>
<path d="M14.0851 72.6092L30.9814 21.6463L29.2596 21.0754L12.3633 72.0383L14.0851 72.6092Z" fill="#FFD05B"/>
<path d="M18.0995 73.9344L34.9958 22.9716L33.274 22.4007L16.3777 73.3636L18.0995 73.9344Z" fill="#FFD05B"/>
<path d="M82.6387 40.4311H28.9487V43.2549H82.6387V40.4311Z" fill="#FFD05B"/>
</svg>
