<svg width="67" height="68" viewBox="0 0 67 68" fill="none" xmlns="http://www.w3.org/2000/svg">
<path d="M29.5989 59.875C43.3554 59.875 54.5072 48.1295 54.5072 33.6406C54.5072 19.1518 43.3554 7.40625 29.5989 7.40625C15.8425 7.40625 4.69067 19.1518 4.69067 33.6406C4.69067 48.1295 15.8425 59.875 29.5989 59.875Z" fill="#D2DDFF"/>
<path d="M38.0354 60.3769L39.2591 61.1525C39.876 61.5602 40.6134 61.7158 41.3318 61.5897C42.0502 61.4636 42.6998 61.0646 43.1578 60.4681C43.3974 60.1311 43.5675 59.7452 43.6572 59.3349C43.7469 58.9247 43.7543 58.4992 43.6789 58.0858C43.6034 57.6724 43.4468 57.2801 43.2191 56.9342C42.9914 56.5882 42.6975 56.2961 42.3564 56.0767L43.8401 57.012C44.4563 57.4223 45.1943 57.5792 45.9133 57.453C46.6324 57.3268 47.2822 56.9262 47.7387 56.3277C47.9869 55.9895 48.164 55.5995 48.258 55.1836C48.352 54.7678 48.3609 54.3357 48.2841 53.9159C48.2072 53.4962 48.0464 53.0985 47.8124 52.7493C47.5783 52.4001 47.2763 52.1074 46.9265 51.8906L48.421 52.8259C49.0372 53.2362 49.7752 53.3931 50.4943 53.2669C51.2133 53.1407 51.8631 52.7401 52.3197 52.1416C52.56 51.8038 52.7301 51.4166 52.8192 51.0051C52.9082 50.5935 52.9141 50.1669 52.8365 49.7528C52.7589 49.3388 52.5995 48.9465 52.3687 48.6015C52.1379 48.2565 51.8408 47.9664 51.4966 47.7502L51.0201 47.4422L52.3413 46.1875L47.6521 38.7164L34.2991 27.6638L32.6205 26.1581C31.1179 24.8153 29.2849 23.9483 27.3337 23.6576C25.3826 23.3669 23.3931 23.6644 21.5959 24.5156C19.9216 25.3007 18.0754 25.5887 16.2569 25.3483L11.4052 24.7095L6.85673 22.2344L1.44189 35.9219L5.6763 39.7202L13.3545 49.7691L30.5087 62.3159L33.4544 64.4375L34.8189 65.3614C35.4699 65.7727 36.249 65.8955 36.9858 65.7031C37.7226 65.5107 38.357 65.0187 38.7501 64.3348C39.1396 63.6479 39.2546 62.8262 39.0699 62.0501C38.8852 61.2739 38.4158 60.6066 37.7646 60.1944L36.0968 59.1792" fill="#BF7E68"/>
<path d="M38.0354 60.3769L39.2591 61.1525C39.876 61.5602 40.6134 61.7158 41.3318 61.5897C42.0502 61.4636 42.6998 61.0646 43.1578 60.4681C43.3974 60.1311 43.5675 59.7452 43.6572 59.3349C43.7469 58.9247 43.7543 58.4992 43.6789 58.0858C43.6034 57.6724 43.4468 57.2801 43.2191 56.9342C42.9914 56.5882 42.6975 56.2961 42.3564 56.0767L43.8401 57.012C44.4563 57.4223 45.1943 57.5792 45.9133 57.453C46.6324 57.3268 47.2822 56.9262 47.7387 56.3277C47.987 55.9895 48.164 55.5995 48.258 55.1836C48.352 54.7678 48.3609 54.3357 48.2841 53.9159C48.2072 53.4962 48.0464 53.0985 47.8124 52.7493C47.5783 52.4001 47.2763 52.1074 46.9265 51.8906L48.421 52.8259C49.0372 53.2362 49.7752 53.3931 50.4943 53.2669C51.2133 53.1407 51.8631 52.7401 52.3197 52.1416C52.56 51.8038 52.7301 51.4166 52.8192 51.0051C52.9082 50.5935 52.9141 50.1669 52.8365 49.7528C52.7589 49.3388 52.5995 48.9465 52.3687 48.6015C52.1379 48.2565 51.8408 47.9664 51.4966 47.7502L51.0201 47.4422L52.3413 46.1875L47.6521 38.7164L34.2991 27.6638L32.6205 26.1581C31.1179 24.8153 29.2849 23.9483 27.3337 23.6576C25.3826 23.3669 23.3931 23.6644 21.5959 24.5156C19.9216 25.3007 18.0754 25.5887 16.2569 25.3483L11.4052 24.7095L6.85673 22.2344L1.44189 35.9219L5.6763 39.7202L13.3545 49.7691L30.5087 62.3159L33.4544 64.4375L34.8189 65.3614C35.4699 65.7727 36.249 65.8955 36.9858 65.7031C37.7226 65.5107 38.357 65.0187 38.7501 64.3348C39.1396 63.6479 39.2546 62.8262 39.0699 62.0501C38.8852 61.2739 38.4158 60.6066 37.7646 60.1944L36.0968 59.1792" stroke="#4C241D" stroke-width="2" stroke-linecap="round" stroke-linejoin="round"/>
<path d="M58.2977 63.2969C59.793 63.2969 61.0052 62.0202 61.0052 60.4453C61.0052 58.8704 59.793 57.5938 58.2977 57.5938C56.8025 57.5938 55.5903 58.8704 55.5903 60.4453C55.5903 62.0202 56.8025 63.2969 58.2977 63.2969Z" stroke="#4C241D" stroke-width="2" stroke-linecap="round" stroke-linejoin="round"/>
<path d="M61.0809 15.3906C61.0961 15.6348 61.0413 15.8781 60.9236 16.089C60.8058 16.3 60.6306 16.4687 60.4207 16.5735C60.2107 16.6782 59.9757 16.7141 59.7462 16.6764C59.5166 16.6387 59.3032 16.5292 59.1334 16.3621C58.9637 16.1951 58.8456 15.9781 58.7944 15.7395C58.7432 15.5008 58.7613 15.2515 58.8463 15.0238C58.9313 14.7961 59.0794 14.6005 59.2712 14.4626C59.4631 14.3246 59.6899 14.2505 59.9222 14.25C60.2168 14.2493 60.5006 14.3669 60.7159 14.5788C60.9311 14.7907 61.0617 15.081 61.0809 15.3906Z" fill="#4C241D"/>
<path d="M56.879 21.2306L65.4669 39.3437L52.4713 47.7958L37.1798 39.3437C35.3171 38.7506 33.6927 37.1994 33.3353 33.7433L25.4729 34.4961C24.7231 34.5692 23.972 34.372 23.3424 33.9369C22.7128 33.5017 22.2422 32.8544 22.0074 32.1008C21.8663 31.6584 21.8105 31.1907 21.8434 30.7253C21.8763 30.2599 21.9972 29.8061 22.199 29.3906C22.4008 28.9751 22.6794 28.6063 23.0184 28.3058C23.3575 28.0053 23.7502 27.7793 24.1734 27.6409L35.5878 23.8427C36.6678 23.4817 37.8128 23.3917 38.9317 23.5798C40.0505 23.768 41.112 24.2291 42.0315 24.9262L42.443 25.2342C43.4413 25.9806 44.6132 26.4278 45.8337 26.5282C47.0542 26.6286 48.2778 26.3785 49.374 25.8045L56.879 21.2306Z" fill="#FFE8DC" stroke="#4C241D" stroke-width="2" stroke-linecap="round" stroke-linejoin="round"/>
<path d="M43.8399 38.7164C42.0343 39.4333 40.0971 39.7064 38.176 39.5148L37.1797 39.3438" fill="white"/>
<path d="M43.8399 38.7164C42.0343 39.4333 40.0971 39.7064 38.176 39.5148L37.1797 39.3438" stroke="#4C241D" stroke-width="2" stroke-linecap="round" stroke-linejoin="round"/>
<path d="M12.0549 52.3697C11.5193 51.8032 11.2185 51.0362 11.2185 50.2367C11.2185 49.4372 11.5193 48.6702 12.0549 48.1037L13.4086 46.678C13.9465 46.1138 14.6747 45.797 15.4338 45.797C16.1929 45.797 16.9211 46.1138 17.4589 46.678C17.9946 47.2445 18.2954 48.0114 18.2954 48.8109C18.2954 49.6105 17.9946 50.3774 17.4589 50.9439L16.1052 52.3697C15.5674 52.9339 14.8392 53.2506 14.0801 53.2506C13.321 53.2506 12.5928 52.9339 12.0549 52.3697Z" fill="#FFE8DC" stroke="#4C241D" stroke-width="2" stroke-linecap="round" stroke-linejoin="round"/>
<path d="M16.1053 56.6242C15.5703 56.0597 15.2698 55.2946 15.2698 54.497C15.2698 53.6993 15.5703 52.9342 16.1053 52.3697L18.7694 49.5295C19.0342 49.2474 19.3496 49.0235 19.6972 48.8706C20.0449 48.7178 20.4178 48.6391 20.7945 48.6391C21.1712 48.6391 21.5442 48.7178 21.8918 48.8706C22.2394 49.0235 22.5548 49.2474 22.8197 49.5295C23.3547 50.0941 23.6551 50.8591 23.6551 51.6568C23.6551 52.4544 23.3547 53.2195 22.8197 53.7841L20.1231 56.6242C19.5893 57.1835 18.8671 57.4975 18.1142 57.4975C17.3613 57.4975 16.639 57.1835 16.1053 56.6242Z" fill="#FFE8DC" stroke="#4C241D" stroke-width="2" stroke-linecap="round" stroke-linejoin="round"/>
<path d="M20.1555 60.8902C19.6198 60.3237 19.3191 59.5567 19.3191 58.7572C19.3191 57.9577 19.6198 57.1907 20.1555 56.6242L24.1841 52.3697C24.722 51.8055 25.4502 51.4887 26.2093 51.4887C26.9684 51.4887 27.6966 51.8055 28.2344 52.3697C28.7695 52.9342 29.0699 53.6993 29.0699 54.497C29.0699 55.2946 28.7695 56.0597 28.2344 56.6242L24.1841 60.8902C23.6486 61.4502 22.9245 61.7645 22.1698 61.7645C21.4151 61.7645 20.6911 61.4502 20.1555 60.8902Z" fill="#FFE8DC" stroke="#4C241D" stroke-width="2" stroke-linecap="round" stroke-linejoin="round"/>
<path d="M24.1843 65.1561C23.6487 64.5896 23.3479 63.8226 23.3479 63.0231C23.3479 62.2236 23.6487 61.4567 24.1843 60.8902L29.5992 55.187C30.1352 54.6235 30.8616 54.3071 31.6189 54.3071C32.3762 54.3071 33.1026 54.6235 33.6386 55.187C33.9065 55.466 34.1191 55.7982 34.2642 56.1643C34.4093 56.5304 34.4841 56.9232 34.4841 57.32C34.4841 57.7168 34.4093 58.1096 34.2642 58.4757C34.1191 58.8418 33.9065 59.174 33.6386 59.453L28.2238 65.1561C27.6864 65.7168 26.9605 66.0314 26.2041 66.0314C25.4476 66.0314 24.7217 65.7168 24.1843 65.1561Z" fill="#FFE8DC" stroke="#4C241D" stroke-width="2" stroke-linecap="round" stroke-linejoin="round"/>
<path d="M35.0139 58.7344L39.3458 61.2437C39.998 61.654 40.7781 61.7751 41.5151 61.5806C42.252 61.386 42.8856 60.8916 43.277 60.2058C43.6665 59.5188 43.7815 58.6972 43.5967 57.921C43.412 57.1449 42.9426 56.4775 42.2915 56.0653L39.0426 54.0008" fill="#BF7E68"/>
<path d="M35.0139 58.7344L39.3458 61.2437C39.998 61.654 40.7781 61.7751 41.5151 61.5806C42.252 61.386 42.8856 60.8916 43.277 60.2058C43.6665 59.5188 43.7815 58.6972 43.5967 57.921C43.412 57.1449 42.9426 56.4775 42.2915 56.0653L39.0426 54.0008" stroke="#4C241D" stroke-width="2" stroke-linecap="round" stroke-linejoin="round"/>
<path d="M42.0098 48.8338L48.5076 52.9628C48.8338 53.1733 49.1969 53.3126 49.5752 53.3726C49.9535 53.4325 50.3395 53.4119 50.7101 53.3119C51.0807 53.2119 51.4285 53.0346 51.7329 52.7905C52.0373 52.5464 52.292 52.2404 52.4821 51.8906C52.6761 51.5517 52.8046 51.1758 52.8601 50.7844C52.9155 50.3929 52.8969 49.9938 52.8053 49.61C52.7137 49.2262 52.5509 48.8653 52.3263 48.5481C52.1017 48.2308 51.8197 47.9635 51.4966 47.7616L44.9988 43.6325" fill="#BF7E68"/>
<path d="M42.0098 48.8338L48.5076 52.9628C48.8338 53.1733 49.1969 53.3126 49.5752 53.3726C49.9535 53.4325 50.3395 53.4119 50.7101 53.3119C51.0807 53.2119 51.4285 53.0346 51.7329 52.7905C52.0373 52.5464 52.292 52.2404 52.4821 51.8906C52.6761 51.5517 52.8046 51.1758 52.8601 50.7844C52.9155 50.3929 52.8969 49.9938 52.8053 49.61C52.7137 49.2262 52.5509 48.8653 52.3263 48.5481C52.1017 48.2308 51.8197 47.9635 51.4966 47.7616L44.9988 43.6325" stroke="#4C241D" stroke-width="2" stroke-linecap="round" stroke-linejoin="round"/>
<path d="M32.8479 15.3906C36.4365 15.3906 39.3457 12.3266 39.3457 8.54688C39.3457 4.76718 36.4365 1.70312 32.8479 1.70312C29.2593 1.70312 26.3501 4.76718 26.3501 8.54688C26.3501 12.3266 29.2593 15.3906 32.8479 15.3906Z" fill="#A9BA5A" stroke="#4C241D" stroke-width="2" stroke-linecap="round" stroke-linejoin="round"/>
<path d="M30.6819 9.6875L32.3063 10.8281L35.0138 6.26562" fill="#A9BA5A"/>
<path d="M30.6819 9.6875L32.3063 10.8281L35.0138 6.26562" stroke="#4C241D" stroke-width="2" stroke-linecap="round" stroke-linejoin="round"/>
</svg>
