<svg width="71" height="71" viewBox="0 0 71 71" fill="none" xmlns="http://www.w3.org/2000/svg">
<mask id="mask0_151_829" style="mask-type:luminance" maskUnits="userSpaceOnUse" x="0" y="0" width="71" height="71">
<path d="M71 0H0V71H71V0Z" fill="white"/>
</mask>
<g mask="url(#mask0_151_829)">
<path d="M62.0654 13.3125L64.2842 37.7188H42.0967V11.0938H59.8467C61.0226 11.0938 61.8657 11.6928 62.0654 13.3125Z" fill="#FFE6EA"/>
<path d="M55.409 55.4688C59.0921 55.4688 62.0652 58.4419 62.0652 62.125C62.0652 65.8081 59.0921 68.7812 55.409 68.7812C51.7259 68.7812 48.7527 65.8081 48.7527 62.125C48.7527 58.4419 51.7259 55.4688 55.409 55.4688ZM17.6902 55.4688C21.3733 55.4688 24.3465 58.4419 24.3465 62.125C24.3465 65.8081 21.3733 68.7812 17.6902 68.7812C14.0071 68.7812 11.0339 65.8081 11.0339 62.125C11.0339 61.4372 11.1449 60.7494 11.3446 60.1281C12.1877 57.4213 14.6949 55.4688 17.6902 55.4688Z" fill="#668077"/>
<path d="M2.33679 6.65625L5.66492 26.625L8.59367 44.375L11.2118 60.0838L11.3449 60.1281C12.188 57.4212 14.6952 55.4688 17.6905 55.4688C21.3737 55.4688 24.3468 58.4419 24.3468 62.125H48.7529C48.7529 58.4419 51.726 55.4688 55.4091 55.4688C59.0922 55.4688 62.0654 58.4419 62.0654 62.125H68.7216V42.1562C68.7216 39.9375 66.5029 37.7188 64.2841 37.7188H42.0968V4.4375C42.0968 3.28375 41.0097 2.21875 39.8781 2.21875H6.59679C3.62367 2.21875 1.71554 2.97313 2.33679 6.65625Z" fill="#FFC44D"/>
<path d="M62.125 62.125C62.125 58.4507 59.143 55.4688 55.4688 55.4688C51.7945 55.4688 48.8125 58.4507 48.8125 62.125C48.8125 65.7993 51.7945 68.7812 55.4688 68.7812C59.143 68.7812 62.125 65.7993 62.125 62.125ZM62.125 62.125H68.7812V42.1562C68.7812 39.9375 66.5625 37.7188 64.3438 37.7188M64.3438 37.7188H48.8125M64.3438 37.7188L62.125 13.3125C61.9164 11.6839 61.0844 11.0938 59.9062 11.0938H48.8125M24.4062 62.125C24.4062 58.4507 21.4243 55.4688 17.75 55.4688C14.0757 55.4688 11.0938 58.4507 11.0938 62.125C11.0938 65.7993 14.0757 68.7812 17.75 68.7812C21.4243 68.7812 24.4062 65.7993 24.4062 62.125ZM24.4062 62.125H42.1562V4.4375C42.1562 3.29263 41.0802 2.21875 39.9375 2.21875H6.65625C3.67425 2.21875 1.76834 2.982 2.39181 6.65625L4.4375 19.9688M17.75 35.5H4.4375M19.9688 44.375H6.65625M15.5312 26.625H2.21875" stroke="black" stroke-width="5.25" stroke-linecap="round" stroke-linejoin="round"/>
</g>
</svg>
