<svg width="85" height="77" viewBox="0 0 85 77" fill="none" xmlns="http://www.w3.org/2000/svg">
<g clip-path="url(#clip0_151_858)">
<path d="M69.9205 28.5552H23.3069V38.4926H69.9205V28.5552Z" fill="#CF9E76"/>
<path d="M56.2107 36.0083V38.4926H37.0168V36.0083C37.0168 34.6419 38.2507 33.5239 39.7588 33.5239H53.4687C54.9768 33.5239 56.2107 34.6419 56.2107 36.0083Z" fill="#D3A06C"/>
<path d="M15.0811 22.543L17.8642 21.1021H75.3635L78.1466 22.543V75.7578H69.9207V38.4925V28.5551H23.307V38.4925V44.7034C23.307 44.0202 22.69 43.4612 21.936 43.4612H15.0811V22.543Z" fill="#E6E9ED"/>
<path d="M42.5008 53.3987C40.9927 53.3987 39.7588 54.5166 39.7588 55.883V43.4613H34.2749V65.8204C34.0829 65.8204 33.9047 65.8328 33.7128 65.8453C31.9442 58.1189 26.0764 51.5478 17.823 48.43H21.936C22.69 48.43 23.307 47.871 23.307 47.1878V45.9456V44.7034V38.4926H37.0169H56.2107H69.9206V75.7578H34.2749C37.3048 75.7578 39.7588 73.5343 39.7588 70.7891H52.0977C54.3736 70.7891 56.2107 69.1246 56.2107 67.0626V65.8204H50.7268C52.2348 65.8204 53.4687 64.7025 53.4687 63.3361V55.883C53.4687 54.5166 52.2348 53.3987 50.7268 53.3987H45.2428H42.5008Z" fill="#ECC19C"/>
<path d="M82.2733 18.9531C83.5757 19.6488 84.0145 21.1642 83.2604 22.3567C82.7669 23.1144 81.862 23.5865 80.8886 23.5865C80.4088 23.5865 79.9289 23.4747 79.5039 23.2511L78.1466 22.543L75.3635 21.1021L46.6138 6.196L17.8642 21.1021L15.0811 22.543L13.7238 23.2511C13.2988 23.4747 12.8327 23.5865 12.3391 23.5865C11.3657 23.5865 10.4608 23.1144 9.96729 22.3567C9.21325 21.1642 9.65196 19.6488 10.9544 18.9531L44.0501 1.84838C44.8316 1.43846 45.7227 1.22729 46.6138 1.22729C47.5187 1.22729 48.3961 1.43846 49.1776 1.84838L82.2733 18.9531Z" fill="#FF826E"/>
<path d="M75.3633 21.1022H17.864L46.6137 6.19604L75.3633 21.1022Z" fill="#FC6E51"/>
<path d="M46.6138 16.1334C48.1282 16.1334 49.3558 15.0211 49.3558 13.649C49.3558 12.277 48.1282 11.1647 46.6138 11.1647C45.0995 11.1647 43.8718 12.277 43.8718 13.649C43.8718 15.0211 45.0995 16.1334 46.6138 16.1334Z" fill="#69D6F4"/>
<path d="M23.3069 45.9457V47.1878C23.3069 47.871 22.69 48.43 21.9359 48.43H17.823H4.11307H2.74208C1.98804 48.43 1.37109 47.871 1.37109 47.1878V44.7035C1.37109 44.0203 1.98804 43.4613 2.74208 43.4613H15.081H21.9359C22.69 43.4613 23.3069 44.0203 23.3069 44.7035V45.9457Z" fill="#AAB2BD"/>
<path d="M39.7589 63.3361V65.8205H34.2749V43.4613H39.7589V55.8831V63.3361Z" fill="#AAB2BD"/>
<path d="M42.5008 65.8204H50.7268H56.2107V67.0626C56.2107 69.1246 54.3736 70.7891 52.0978 70.7891H39.7589C39.7589 68.0439 37.3048 65.8204 34.2749 65.8204H39.7589H42.5008Z" fill="#AAB2BD"/>
<path d="M17.8229 70.7891H6.85502C5.34693 70.7891 4.11304 69.6712 4.11304 68.3048V63.3361H15.081C18.1108 63.3361 20.5649 65.5596 20.5649 68.3048V70.7891H17.8229Z" fill="#AAB2BD"/>
<path d="M34.2747 65.8204C37.3046 65.8204 39.7587 68.0439 39.7587 70.7891C39.7587 73.5343 37.3046 75.7578 34.2747 75.7578C31.2448 75.7578 28.7908 73.5343 28.7908 70.7891C28.7908 68.2178 30.9432 66.1061 33.7126 65.8453C33.9046 65.8329 34.0828 65.8204 34.2747 65.8204Z" fill="#969FAA"/>
<path d="M6.85498 70.7892H17.8229C17.8229 73.5344 15.3688 75.7579 12.3389 75.7579C9.30905 75.7579 6.85498 73.5344 6.85498 70.7892Z" fill="#969FAA"/>
<path d="M45.2427 53.3987H50.7267C52.2348 53.3987 53.4687 54.5166 53.4687 55.883V63.3361C53.4687 64.7025 52.2348 65.8204 50.7267 65.8204H42.5008C40.9927 65.8204 39.7588 64.7025 39.7588 63.3361V55.883C39.7588 54.5166 40.9927 53.3987 42.5008 53.3987H45.2427Z" fill="#D3A06C"/>
<path d="M82.9517 17.8773L49.8547 0.763794C47.8846 -0.254791 45.3469 -0.256033 43.3713 0.763794L10.2673 17.8835C8.31094 18.9182 7.64738 21.2038 8.78942 22.9826C9.52427 24.1217 10.8857 24.8285 12.343 24.8285C12.8146 24.8285 13.2712 24.7291 13.7099 24.5875V42.2177H2.74198C1.22978 42.2177 0 43.3319 0 44.702V47.1864C0 48.5565 1.22978 49.6707 2.74198 49.6707V68.3034C2.74198 69.9592 3.94845 71.3504 5.60049 71.8336C6.153 74.7615 8.95531 76.9999 12.3389 76.9999C15.6485 76.9999 18.4179 74.8621 19.0554 72.0312H27.5583C28.1958 74.8621 30.9638 76.9999 34.2747 76.9999C37.5857 76.9999 40.3537 74.8621 40.9912 72.0312H52.0976C55.122 72.0312 57.5816 69.8027 57.5816 67.0625V64.5781H54.5873C54.7409 64.1881 54.8396 63.7732 54.8396 63.3359V55.8829C54.8396 53.8283 52.9942 52.1563 50.7266 52.1563H42.5007C42.0181 52.1563 41.5602 52.2458 41.1297 52.3849V42.2189H32.9038V59.8193C30.6951 55.6257 27.2553 52.0483 22.9476 49.4919C23.9594 49.1267 24.6778 48.2335 24.6778 47.1876V45.9455V44.7033V39.7346H68.5495V76.9999H71.2915V27.3128H21.9358V42.2189H16.4519V23.2646L18.2273 22.3441H75.0041L76.7782 23.2633V76.9999H79.5201V24.5875C79.9616 24.7303 80.4182 24.8285 80.8884 24.8285C82.3444 24.8285 83.7072 24.1204 84.4447 22.9764C85.5827 21.2038 84.9177 18.9182 82.9517 17.8773ZM19.1939 69.5468H6.85495C6.09816 69.5468 5.48396 68.9903 5.48396 68.3046V64.5781H15.0809C17.3485 64.5781 19.1939 66.2501 19.1939 68.3046V69.5468ZM12.3389 74.5155C10.5539 74.5155 9.04579 73.4733 8.4782 72.0312H16.1982C15.632 73.4746 14.1239 74.5155 12.3389 74.5155ZM34.2747 74.5155C32.0071 74.5155 30.1618 72.8435 30.1618 70.789C30.1618 68.7344 32.0071 67.0625 34.2747 67.0625C36.5424 67.0625 38.3877 68.7344 38.3877 70.789C38.3877 72.8435 36.5424 74.5155 34.2747 74.5155ZM52.0976 69.5468H40.9912C40.7828 68.6239 40.3304 67.7879 39.7244 67.0625H42.5007H50.7266H54.8396C54.8396 68.4326 53.6098 69.5468 52.0976 69.5468ZM42.5007 54.6407H43.8717V59.6094H46.6137V54.6407H50.7266C51.4834 54.6407 52.0976 55.1972 52.0976 55.8829V63.3359C52.0976 64.0216 51.4834 64.5781 50.7266 64.5781H42.5007C41.7439 64.5781 41.1297 64.0216 41.1297 63.3359V55.8829C41.1297 55.1984 41.7439 54.6407 42.5007 54.6407ZM38.3877 44.7033V55.8829V63.3359V64.5781H35.6457V44.7033H38.3877ZM32.0633 64.9396C29.793 65.6476 28.045 67.3817 27.5583 69.548H21.9358V68.3059C21.9358 64.8812 18.8607 62.095 15.0809 62.095H5.48396V49.6732H17.5281C24.7354 52.4706 30.0795 58.1088 32.0633 64.9396ZM54.8396 37.2502H38.3877V36.0081C38.3877 35.3236 39.0019 34.7659 39.7587 34.7659H53.4686C54.2254 34.7659 54.8396 35.3236 54.8396 36.0081V37.2502ZM68.5495 29.7972V37.2502H57.5816V36.0081C57.5816 33.9535 55.7362 32.2815 53.4686 32.2815H39.7587C37.4911 32.2815 35.6457 33.9535 35.6457 36.0081V37.2502H24.6778V29.7972H68.5495ZM21.9358 45.9455V47.1876H2.74198L2.73924 44.7033H2.74198H21.9358V45.9455ZM23.0189 19.8598L46.615 7.62682L70.2111 19.8598H23.0189ZM82.0757 21.7255C81.7069 22.2969 80.8473 22.5193 80.1892 22.1702L46.615 4.76484L13.0299 22.1764C12.3992 22.5106 11.5218 22.2969 11.1585 21.733C10.7787 21.1392 10.9981 20.3753 11.6397 20.0374L44.7313 2.9227C45.3044 2.62582 45.9556 2.4693 46.6137 2.4693C47.2717 2.4693 47.9243 2.62582 48.496 2.92145L81.5794 20.0275C82.232 20.374 82.4541 21.1367 82.0757 21.7255Z" fill="black"/>
<path d="M42.5007 13.649C42.5007 15.7036 44.3461 17.3755 46.6137 17.3755C48.8813 17.3755 50.7267 15.7036 50.7267 13.649C50.7267 11.5945 48.8813 9.92249 46.6137 9.92249C44.3461 9.92249 42.5007 11.5945 42.5007 13.649ZM47.9847 13.649C47.9847 14.3335 47.3705 14.8912 46.6137 14.8912C45.8569 14.8912 45.2427 14.3335 45.2427 13.649C45.2427 12.9646 45.8569 12.4068 46.6137 12.4068C47.3705 12.4068 47.9847 12.9646 47.9847 13.649Z" fill="black"/>
<path d="M34.2748 72.0313C35.032 72.0313 35.6458 71.4752 35.6458 70.7892C35.6458 70.1031 35.032 69.547 34.2748 69.547C33.5176 69.547 32.9038 70.1031 32.9038 70.7892C32.9038 71.4752 33.5176 72.0313 34.2748 72.0313Z" fill="black"/>
</g>
<defs>
<clipPath id="clip0_151_858">
<rect width="85" height="77" fill="white"/>
</clipPath>
</defs>
</svg>
